<svg xmlns="http://www.w3.org/2000/svg" viewBox="0 0 48 48" xmlns:xlink="http://www.w3.org/1999/xlink" xml:space="preserve" width="100%" height="100%"><path xmlns="http://www.w3.org/2000/svg" fill="currentColor" d="M23.992 38.02a1.5 1.5 0 0 1 1.486 1.298l.014.204v3a1.5 1.5 0 0 1-2.986.202l-.014-.202v-3a1.5 1.5 0 0 1 1.5-1.5Zm12.044-4.144 2.12 2.12a1.5 1.5 0 1 1-2.12 2.122l-2.12-2.12a1.5 1.5 0 0 1 2.12-2.122m-21.966 0a1.5 1.5 0 0 1 0 2.12l-2.122 2.124A1.5 1.5 0 0 1 9.828 36l2.12-2.122a1.5 1.5 0 0 1 2.12 0ZM24 12.95a11.05 11.05 0 1 1 0 22.1 11.05 11.05 0 0 1 0-22.1m0 3a8.05 8.05 0 1 0 0 16.1 8.05 8.05 0 0 0 0-16.1m18.5 6.586a1.5 1.5 0 0 1 .204 2.986l-.204.014h-3a1.5 1.5 0 0 1-.204-2.986l.204-.014zm-34-.058a1.5 1.5 0 0 1 .204 2.988l-.204.012h-3a1.5 1.5 0 0 1-.204-2.986l.204-.014zm3.28-12.74.168.144 2.12 2.12a1.5 1.5 0 0 1-1.952 2.268l-.168-.146-2.12-2.12a1.5 1.5 0 0 1 1.952-2.268Zm26.376.144a1.5 1.5 0 0 1 .146 1.954l-.146.168-2.12 2.12a1.5 1.5 0 0 1-2.266-1.952l.144-.168 2.12-2.122a1.5 1.5 0 0 1 2.122 0M24 3.98a1.5 1.5 0 0 1 1.486 1.296l.014.204v3a1.5 1.5 0 0 1-2.986.202l-.014-.204v-3a1.5 1.5 0 0 1 1.5-1.5Z"></path></svg>