<svg xmlns="http://www.w3.org/2000/svg" viewBox="0 0 48 48" xmlns:xlink="http://www.w3.org/1999/xlink" xml:space="preserve" width="100%" height="100%"><path xmlns="http://www.w3.org/2000/svg" fill="currentColor" d="M23.992 37.064a2 2 0 0 1 1.986 1.766l.014.234v2.912a2 2 0 0 1-3.986.232l-.014-.232v-2.912a2 2 0 0 1 2-2M36.066 33.2l2.06 2.06a2 2 0 0 1-2.83 2.826l-2.06-2.058a2 2 0 0 1 2.83-2.828m-21.32 0a2 2 0 0 1 0 2.828l-2.058 2.06a2 2 0 0 1-2.828-2.83l2.06-2.06a2 2 0 0 1 2.826 0Zm9.274-20.256a11.05 11.05 0 1 1 0 22.1 11.05 11.05 0 0 1 0-22.1m17.936 9.092a2 2 0 0 1 .234 3.986l-.234.014h-2.912a2 2 0 0 1-.232-3.986l.232-.014zM8.958 21.98a2 2 0 0 1 .232 3.986l-.232.014H6.046a2 2 0 0 1-.234-3.986l.234-.014zm3.54-12.232.19.166 2.06 2.06a2 2 0 0 1-2.64 2.994l-.192-.168-2.056-2.058a2 2 0 0 1 2.64-2.994Zm25.626.166a2 2 0 0 1 .166 2.64l-.166.188-2.06 2.06a2 2 0 0 1-2.994-2.64l.168-.19 2.058-2.06a2 2 0 0 1 2.828 0ZM24 4.026a2 2 0 0 1 1.986 1.766l.014.234v2.91a2 2 0 0 1-3.986.234L22 8.936v-2.91a2 2 0 0 1 2-2"></path></svg>