<!-- icon666.com - MILLIONS OF FREE VECTOR ICONS --><svg id="SVGRoot" viewBox="0 0 512 512" xmlns="http://www.w3.org/2000/svg" xmlns:svg="http://www.w3.org/2000/svg"><g id="g2899" clip-rule="evenodd" fill-rule="evenodd" stroke-linecap="round" stroke-linejoin="round" stroke-miterlimit="10" fill="currentColor"><path id="path2852" d="m217.28633 232.14448a11.001057 11.0011 0 0 0 -.043.0176l.0156-.0156c-63.3451.16021-118.272483 42.9686-134.608863 103.42969-46.012623 2.97125-82.650067 41.32509-82.650067 88.06641 0 48.6676 39.689336 88.35742 88.357087 88.35742 77.350593 0 206.280723-.00026 257.858373 0 41.54725.0009 75.46454-33.91524 75.46454-75.46289 0-37.98161-28.37336-69.50173-64.98021-74.64649-5.25307-72.39783-65.70117-129.74609-139.41352-129.74609z" stroke-width="22"></path><path id="path2855" d="m294.72265 77.357422c-66.42258-.000016-123.81045 46.853778-137.09961 111.933588a11 11 0 0 0 8.57618 12.97851 11 11 0 0 0 12.97851-8.57616c11.22427-54.96765 59.44325-94.335952 115.54492-94.335938 65.26016 0 117.92774 52.669238 117.92774 117.929688-.00003 28.55989-10.36147 56.14154-29.16407 77.63868a11 11 0 0 0 1.03907 15.52148 11 11 0 0 0 15.52148-1.03711c22.30638-25.50301 34.60349-58.24117 34.60352-92.12305 0-77.15008-62.77787-139.929688-139.92774-139.929688z"></path><path id="path2858" d="m88.437869 206.28711a11.00037 11 0 0 0 -11.00037 11 11.00037 11 0 0 0 11.00037 11h25.776261a11.00037 11 0 0 0 11.00037-11 11.00037 11 0 0 0 -11.00037-11z"></path><path id="path2861" d="m148.85765 60.416016a11.000225 11.000225 0 0 0 -7.77751 3.220769 11.000225 11.000225 0 0 0 0 15.556959l18.22694 18.226936a11.000225 11.000225 0 0 0 15.55696 0 11.000225 11.000225 0 0 0 0-15.555006l-18.22694-18.228889a11.000225 11.000225 0 0 0 -7.77945-3.220769z"></path><path id="path2864" d="m294.72265 0a11 11 0 0 0 -11 11v25.777344a11 11 0 0 0 11 11 11 11 0 0 0 11-11v-25.777344a11 11 0 0 0 -11-11z"></path><path id="path2867" d="m440.58593 60.421875a11 10.999772 0 0 0 -7.77929 3.222589l-18.22657 18.226185a11 10.999772 0 0 0 0 15.556317 11 10.999772 0 0 0 15.55665 0l18.22656-18.226184a11 10.999772 0 0 0 0-15.556318 11 10.999772 0 0 0 -7.77735-3.222589z"></path><path id="path2870" d="m475.22265 206.28711a11 11 0 0 0 -11 11 11 11 0 0 0 11 11h25.77735a11 11 0 0 0 11-11 11 11 0 0 0 -11-11z"></path><path id="path2873" d="m422.36328 333.92187a11 11.000306 0 0 0 -7.77735 3.2208 11 11.000306 0 0 0 0 15.55707l18.22657 18.22708a11 11.000306 0 0 0 15.55664 0 11 11.000306 0 0 0 0-15.55707l-18.22852-18.22708a11 11.000306 0 0 0 -7.77734-3.2208z"></path></g></svg>