<svg xmlns="http://www.w3.org/2000/svg" viewBox="0 0 48 48" xmlns:xlink="http://www.w3.org/1999/xlink" xml:space="preserve" width="100%" height="100%"><path xmlns="http://www.w3.org/2000/svg" fill="currentColor" d="M26.004 16.014c6.338 0 9.932 4.194 10.456 9.26h.16a7.374 7.374 0 0 1 7.384 7.366 7.374 7.374 0 0 1-7.384 7.364H15.388a7.374 7.374 0 0 1-7.384-7.364 7.374 7.374 0 0 1 7.384-7.366h.16c.526-5.1 4.118-9.26 10.454-9.26Zm0 2.996c-4.142 0-7.754 3.266-7.754 7.778 0 .714-.638 1.276-1.368 1.276h-1.38c-2.522 0-4.568 2.002-4.568 4.472s2.046 4.472 4.568 4.472h21.006c2.52 0 4.566-2 4.566-4.472 0-2.47-2.044-4.472-4.566-4.472h-1.382c-.73 0-1.368-.56-1.368-1.276 0-4.57-3.612-7.78-7.754-7.78ZM8.736 24.324a1.5 1.5 0 0 1-.63 1.87l-.182.09-1.852.768a1.5 1.5 0 0 1-1.332-2.68l.184-.092 1.852-.766a1.5 1.5 0 0 1 1.96.81m12.974-9.666-.344.116a11.6 11.6 0 0 0-2.92 1.516 4.884 4.884 0 0 0-5.586 7.334 9.2 9.2 0 0 0-2.732 1.28A7.884 7.884 0 0 1 21.71 14.66Zm-15.83.062.212.07 1.852.768a1.5 1.5 0 0 1-.938 2.84l-.206-.066-1.852-.768a1.5 1.5 0 0 1 .936-2.84Zm7.63-5.972.092.182.766 1.854a1.5 1.5 0 0 1-2.68 1.33l-.092-.182-.766-1.854a1.5 1.5 0 0 1 2.68-1.33m8.708-.638a1.5 1.5 0 0 1 .88 1.75l-.07.21-.766 1.854a1.5 1.5 0 0 1-2.84-.938l.068-.212.768-1.852a1.5 1.5 0 0 1 1.96-.812"></path></svg>