<svg xmlns="http://www.w3.org/2000/svg" xmlns:xlink="http://www.w3.org/1999/xlink" version="1.1" viewBox="0 0 256 256" xml:space="preserve">
<g style="stroke: none; stroke-width: 0; stroke-dasharray: none; stroke-linecap: butt; stroke-linejoin: miter; stroke-miterlimit: 10; fill: none; fill-rule: nonzero; opacity: 1;" transform="translate(1.4065934065934016 1.4065934065934016) scale(2.81 2.81)">
	<path d="M 59.02 20.575 c -0.559 0 -1.011 -0.453 -1.011 -1.011 v -6.166 c 0 -0.558 0.452 -1.011 1.011 -1.011 s 1.011 0.453 1.011 1.011 v 6.166 C 60.031 20.123 59.579 20.575 59.02 20.575 z" style="stroke-width: 2; stroke-dasharray: none; stroke-linecap: butt; stroke-linejoin: miter; stroke-miterlimit: 10; fill: currentColor; fill-rule: nonzero; opacity: 1;" transform=" matrix(1 0 0 1 0 0) " stroke-linecap="round" stroke="currentColor"/>
	<path d="M 88.989 44.378 h -6.166 c -0.559 0 -1.011 -0.453 -1.011 -1.011 c 0 -0.558 0.452 -1.011 1.011 -1.011 h 6.166 c 0.559 0 1.011 0.453 1.011 1.011 C 90 43.925 89.548 44.378 88.989 44.378 z" style="stroke-width: 2; stroke-dasharray: none; stroke-linecap: butt; stroke-linejoin: miter; stroke-miterlimit: 10; fill: currentColor; fill-rule: nonzero; opacity: 1;" transform=" matrix(1 0 0 1 0 0) " stroke-linecap="round" stroke="currentColor"/>
	<path d="M 75.852 27.547 c -0.259 0 -0.517 -0.099 -0.715 -0.296 c -0.395 -0.395 -0.395 -1.035 0 -1.43 l 4.36 -4.36 c 0.395 -0.395 1.035 -0.395 1.43 0 s 0.395 1.035 0 1.43 l -4.36 4.36 C 76.369 27.448 76.11 27.547 75.852 27.547 z" style="stroke-width: 2; stroke-dasharray: none; stroke-linecap: butt; stroke-linejoin: miter; stroke-miterlimit: 10; fill: currentColor; fill-rule: nonzero; opacity: 1;" transform=" matrix(1 0 0 1 0 0) " stroke-linecap="round" stroke="currentColor"/>
	<path d="M 75.017 57.925 c -0.767 -0.209 -1.34 -0.848 -1.465 -1.633 c -0.995 -6.276 -6.329 -10.83 -12.681 -10.83 c -2.67 0 -5.238 0.821 -7.426 2.375 c -0.488 0.347 -1.102 0.46 -1.683 0.308 c -0.579 -0.151 -1.062 -0.551 -1.316 -1.092 c -2.983 -6.308 -9.415 -10.384 -16.386 -10.384 c -9.99 0 -18.118 8.127 -18.118 18.118 c 0 0.412 0.019 0.819 0.046 1.223 c 0.061 0.921 -0.51 1.767 -1.386 2.055 c -4.126 1.356 -6.899 5.183 -6.899 9.523 c 0 5.529 4.498 10.027 10.027 10.027 h 54.637 c 5.529 0 10.027 -4.498 10.027 -10.027 C 82.395 63.086 79.361 59.114 75.017 57.925 z" style="stroke: none; stroke-width: 1; stroke-dasharray: none; stroke-linecap: butt; stroke-linejoin: miter; stroke-miterlimit: 10; fill: currentColor; fill-rule: nonzero; opacity: 1;" transform=" matrix(1 0 0 1 0 0) " stroke-linecap="round"/>
	<path d="M 50.379 39.812 c 0.029 0.031 0.06 0.06 0.089 0.092 c 0.263 0.289 0.515 0.59 0.763 0.893 c 0.054 0.066 0.112 0.128 0.166 0.194 c 0.231 0.289 0.45 0.59 0.667 0.891 c 0.063 0.087 0.131 0.169 0.192 0.257 c 0.274 0.393 0.536 0.795 0.786 1.208 c 2.41 -1.268 5.078 -1.931 7.83 -1.931 c 0.441 0 0.877 0.023 1.31 0.056 c 0.119 0.009 0.238 0.02 0.356 0.032 c 0.357 0.035 0.71 0.08 1.06 0.136 c 0.08 0.013 0.162 0.022 0.242 0.036 c 0.409 0.072 0.811 0.16 1.209 0.261 c 0.121 0.031 0.241 0.065 0.361 0.099 c 0.295 0.082 0.587 0.171 0.876 0.268 c 0.124 0.042 0.249 0.081 0.372 0.126 c 0.364 0.132 0.723 0.274 1.074 0.43 c 0.131 0.058 0.257 0.122 0.386 0.183 c 0.238 0.113 0.473 0.229 0.704 0.353 c 0.153 0.081 0.305 0.163 0.454 0.248 c 0.239 0.137 0.472 0.281 0.704 0.429 c 0.216 0.138 0.428 0.282 0.638 0.43 c 0.18 0.127 0.359 0.255 0.533 0.389 c 0.166 0.127 0.328 0.257 0.488 0.39 c 0.144 0.12 0.285 0.243 0.425 0.368 c 0.269 0.238 0.53 0.485 0.783 0.741 c 0.126 0.127 0.253 0.252 0.375 0.382 c 0.157 0.168 0.308 0.342 0.458 0.517 c 0.105 0.122 0.207 0.246 0.308 0.371 c 0.147 0.182 0.294 0.362 0.434 0.55 c 0.482 -1.529 0.744 -3.155 0.744 -4.841 c 0 -8.903 -7.244 -16.147 -16.147 -16.147 c -6.046 0 -11.319 3.345 -14.086 8.276 C 46.956 36.638 48.796 38.094 50.379 39.812 z" style=" stroke-width: 4; stroke-dasharray: none; stroke-linecap: butt; stroke-linejoin: miter; stroke-miterlimit: 10;  fill-rule: nonzero; opacity: 1;" transform=" matrix(1 0 0 1 0 0) " stroke-linecap="round" stroke="currentColor"/>
	<path d="M 12.47 51.725 C 13.916 41.032 23.098 32.76 34.182 32.76 c 2.415 0 4.776 0.405 7.002 1.162 c 1.893 -3.556 4.816 -6.483 8.371 -8.379 c -1.86 -1.277 -4.107 -2.031 -6.535 -2.031 c -2.499 0 -4.808 0.798 -6.701 2.143 c -2.514 -5.317 -7.925 -8.997 -14.197 -8.997 c -8.67 0 -15.698 7.028 -15.698 15.698 c 0 0.356 0.016 0.708 0.039 1.057 C 2.711 34.645 0 38.17 0 42.333 c 0 5.187 4.205 9.392 9.392 9.392 H 12.47 z" style="stroke: none; stroke-width: 1; stroke-dasharray: none; stroke-linecap: butt; stroke-linejoin: miter; stroke-miterlimit: 10; fill: currentColor; fill-rule: nonzero; opacity: 1;" transform=" matrix(1 0 0 1 0 0) " stroke-linecap="round"/>
</g>
</svg>