<svg enable-background="new 0 0 512 512" viewBox="0 0 512 512" fill="currentColor" xmlns="http://www.w3.org/2000/svg"><g id="_x34_3_weather"><g><path d="m243.956 149.154v14.505c0 4.055 3.287 7.342 7.342 7.342s7.342-3.287 7.342-7.342v-14.505c0-4.055-3.287-7.342-7.342-7.342s-7.342 3.287-7.342 7.342z" stroke="currentColor" stroke-width="10"></path><path d="m243.956 445.015v14.501c0 4.055 3.287 7.342 7.342 7.342s7.342-3.287 7.342-7.342v-14.501c0-4.055-3.287-7.342-7.342-7.342s-7.342 3.287-7.342 7.342z" stroke="currentColor" stroke-width="10"></path><path d="m355.837 189.417-10.257 10.253c-2.868 2.864-2.868 7.514 0 10.382s7.514 2.868 10.382 0l10.257-10.253c2.868-2.864 2.868-7.514 0-10.382s-7.514-2.868-10.382 0z" stroke="currentColor" stroke-width="10"></path><path d="m146.633 398.617-10.257 10.257c-2.868 2.868-2.868 7.514 0 10.382s7.514 2.868 10.382 0l10.257-10.257c2.868-2.868 2.868-7.514 0-10.382s-7.514-2.868-10.382 0z" stroke="currentColor" stroke-width="10"></path><path d="m391.97 311.677 14.509.004c4.055 0 7.342-3.287 7.342-7.339 0-4.058-3.284-7.346-7.339-7.346l-14.509-.004c-4.055 0-7.342 3.287-7.342 7.339.001 4.059 3.285 7.346 7.339 7.346z" stroke="currentColor" stroke-width="10"></path><path d="m96.117 296.993c-4.055 0-7.342 3.287-7.342 7.342s3.287 7.342 7.342 7.342h14.505c4.055 0 7.342-3.287 7.342-7.342s-3.287-7.342-7.342-7.342z" stroke="currentColor" stroke-width="10"></path><path d="m136.377 189.417c-2.868 2.868-2.868 7.518 0 10.382l10.257 10.253c2.864 2.864 7.518 2.872 10.382 0 2.868-2.868 2.868-7.518 0-10.382l-10.257-10.253c-2.868-2.868-7.522-2.868-10.382 0z" stroke="currentColor" stroke-width="10"></path><path d="m448.583 374.507c-5.286-30.984-43.832-43.979-66.74-22.393-4.479-3.598-9.472-6.315-14.758-8.077 4.332-12.775 6.681-26.064 6.681-39.721 0-67.548-54.919-122.466-122.466-122.466s-122.466 54.919-122.466 122.466c0 71.439 61.894 129.588 135.609 121.659 2.57 25.11 27.459 41.703 51.688 34.141 17.254 19.897 47.283 21.659 66.74 4.773 19.016 16.667 48.751 11.454 61.233-10.793 24.89 4.406 46.843-15.125 46.843-39.5.001-22.468-18.795-41.558-42.364-40.089zm-96.255-32.966c-23.715-.074-43.759 17.107-47.283 40.088-17.988-.514-34.435 11.601-39.354 29.368-66.299 8.884-122.173-43.025-122.173-106.681 0-59.398 48.385-107.782 107.782-107.782 59.398 0 107.782 48.384 107.782 107.782.001 12.849-2.348 25.331-6.754 37.225z" ></path><path d="m237.792 105.565c0 23.274-20.852 42.144-44.861 38.106-12.188 21.365-40.455 25.844-58.443 10.352-18.502 15.786-47.136 14.244-63.656-4.626-24.743 7.563-49.78-11.013-49.78-36.931 0-22.026 18.282-38.987 39.06-38.62 2.423-15.125 12.775-29.001 28.561-35.095 15.565-5.947 32.305-3.158 44.787 6.902 22.026-20.411 58.663-8.003 63.876 21.439 22.247-1.247 40.456 16.74 40.456 38.473z"></path></g></g></svg>