<svg xmlns="http://www.w3.org/2000/svg" viewBox="0 0 48 48" xmlns:xlink="http://www.w3.org/1999/xlink" xml:space="preserve" width="100%" height="100%"><path xmlns="http://www.w3.org/2000/svg" fill="currentColor" d="M26.004 14.018c6.336 0 9.932 4.194 10.454 9.26h.16a7.374 7.374 0 0 1 7.384 7.366 7.374 7.374 0 0 1-7.384 7.364h-21.23a7.374 7.374 0 0 1-7.384-7.364 7.374 7.374 0 0 1 7.384-7.366h.16c.526-5.1 4.12-9.26 10.456-9.26M20 8c3.234 0 6.1 1.63 7.8 4.124a16 16 0 0 0-1.796-.106c-5.988 0-10.342 3.354-11.874 8.426l-.136.48-.116.476-.412.078a9.36 9.36 0 0 0-6.898 6.09 6.564 6.564 0 0 1 3.624-11.762l.514-.012A9.44 9.44 0 0 1 20 8"></path></svg>